<svg width="48" height="48" viewBox="0 0 48 48" fill="none" xmlns="http://www.w3.org/2000/svg">
<path d="M29.511 22.9774C29.493 22.9624 29.469 22.9564 29.451 22.9414L17.88 12.4683C17.229 11.8834 16.173 11.8834 15.522 12.4683C15.516 12.4743 15.513 12.4803 15.51 12.4863C15.3524 12.6165 15.2251 12.7795 15.137 12.964C15.0489 13.1485 15.0021 13.3499 15 13.5543L15 34.5033C15.0034 34.7115 15.0524 34.9164 15.1436 35.1035C15.2349 35.2907 15.3661 35.4555 15.528 35.5863L15.522 35.5923C15.8496 35.8755 16.2681 36.0312 16.701 36.0312C17.1339 36.0312 17.5524 35.8755 17.88 35.5923L29.511 25.0953C29.6642 24.9647 29.7872 24.8023 29.8715 24.6195C29.9559 24.4367 29.9996 24.2377 29.9996 24.0364C29.9996 23.835 29.9559 23.636 29.8715 23.4532C29.7872 23.2704 29.6642 23.108 29.511 22.9774Z" fill="#FDF51B"/>
<path d="M16.701 35.5312C16.4551 35.5312 16.2157 35.4617 16.0096 35.3327L15.8423 35.1975C15.7373 35.1126 15.6522 35.0058 15.5931 34.8844C15.5344 34.7642 15.5027 34.6326 15.5 34.4989L15.5 13.5572C15.5017 13.4264 15.5318 13.2975 15.5882 13.1794L15.137 12.964L15.5882 13.1794C15.6449 13.0607 15.7269 12.9557 15.8283 12.8719L15.9099 12.8046L15.9178 12.7887C16.3829 12.427 17.1041 12.444 17.5451 12.8396C17.5453 12.8398 17.5456 12.84 17.5458 12.8403L29.1155 23.3121L29.1231 23.3189L29.1309 23.3255C29.1644 23.3534 29.1954 23.3727 29.2165 23.3848C29.2168 23.385 29.217 23.3851 29.2173 23.3853C29.3012 23.4639 29.3693 23.558 29.4175 23.6627C29.4716 23.7798 29.4996 23.9073 29.4996 24.0364C29.4996 24.1654 29.4716 24.2929 29.4175 24.41C29.3635 24.5272 29.2847 24.6312 29.1865 24.715L29.1864 24.7148L29.176 24.7242L17.5493 35.2173C17.3131 35.4198 17.0122 35.5312 16.701 35.5312ZM15.9572 12.7099C15.9579 12.7085 15.9568 12.7112 15.9537 12.7169L15.9572 12.7099Z" stroke="black" stroke-opacity="0.1"/>
</svg>
