<svg width="15" height="25" viewBox="0 0 15 25" fill="none" xmlns="http://www.w3.org/2000/svg">
<path d="M0.489 10.9774C0.507 10.9624 0.530999 10.9564 0.548999 10.9414L12.12 0.468349C12.771 -0.11665 13.827 -0.11665 14.478 0.468349C14.484 0.47435 14.487 0.480349 14.49 0.486349C14.6476 0.616505 14.7749 0.779514 14.863 0.963985C14.9511 1.14845 14.9979 1.34994 15 1.55435L15 22.5033C14.9966 22.7115 14.9476 22.9164 14.8564 23.1035C14.7651 23.2907 14.6339 23.4555 14.472 23.5863L14.478 23.5923C14.1504 23.8755 13.7319 24.0312 13.299 24.0312C12.8661 24.0312 12.4476 23.8755 12.12 23.5923L0.489 13.0953C0.335818 12.9647 0.21281 12.8023 0.12846 12.6195C0.0441103 12.4367 0.000429153 12.2377 0.000429153 12.0364C0.000429153 11.835 0.0441103 11.636 0.12846 11.4532C0.21281 11.2704 0.335818 11.108 0.489 10.9774Z" fill="#FDF51B"/>
<path d="M13.299 23.5312C13.5449 23.5312 13.7843 23.4617 13.9904 23.3327L14.1577 23.1975C14.2627 23.1126 14.3478 23.0058 14.4069 22.8844C14.4656 22.7642 14.4973 22.6326 14.5 22.4989L14.5 1.55724C14.4983 1.42642 14.4682 1.29752 14.4118 1.17945L14.863 0.963985L14.4118 1.17944C14.3551 1.06067 14.2731 0.955709 14.1717 0.871906L14.0901 0.804556L14.0822 0.788704C13.6171 0.427027 12.8959 0.443993 12.4549 0.839605C12.4547 0.839821 12.4544 0.840036 12.4542 0.840252L0.884526 11.3121L0.876944 11.3189L0.869087 11.3255C0.835577 11.3534 0.804648 11.3727 0.783497 11.3848C0.783236 11.385 0.782974 11.3851 0.782714 11.3853C0.698789 11.4639 0.630748 11.558 0.582472 11.6627C0.52842 11.7798 0.500429 11.9073 0.500429 12.0364C0.500429 12.1654 0.52842 12.2929 0.582471 12.41C0.636523 12.5272 0.715348 12.6312 0.813508 12.715L0.813634 12.7148L0.823996 12.7242L12.4507 23.2173C12.6869 23.4198 12.9878 23.5312 13.299 23.5312ZM14.0428 0.709942C14.0421 0.708494 14.0432 0.711185 14.0463 0.716923L14.0428 0.709942Z" stroke="black" stroke-opacity="0.1"/>
</svg>
