<svg width="100" height="100" viewBox="0 0 100 100" fill="none" xmlns="http://www.w3.org/2000/svg">
<g clip-path="url(#clip0_291_131)">
<path d="M22.2919 23.5C18.5419 20.8333 17.6252 15.6667 20.2502 11.875C22.8752 8.12501 28.0835 7.20835 31.8752 9.83335C35.6252 12.5 36.5419 17.6667 33.9169 21.4583C31.2502 25.2083 26.0835 26.125 22.2919 23.5ZM66.6669 83.3334C66.6669 81.0417 64.7919 79.1667 62.5002 79.1667H37.2085C31.0419 79.1667 25.7919 74.6667 24.8752 68.5833L17.3335 32.4167C17.1449 31.4963 16.6433 30.6696 15.9141 30.0771C15.1849 29.4846 14.2731 29.1629 13.3335 29.1667C10.7502 29.1667 8.83355 31.5417 9.33355 34.0833L16.6252 69.8334C17.3906 74.7542 19.89 79.2393 23.6722 82.479C27.4544 85.7187 32.2702 87.4995 37.2502 87.5H62.5002C64.7919 87.5 66.6669 85.625 66.6669 83.3334ZM64.7502 62.5H47.2919L43.0002 45.4167C48.3335 48.4167 53.9585 50.75 60.0835 50.8333C62.5002 50.875 64.4585 48.7917 64.4585 46.375C64.4585 43.9167 62.4169 42.0417 59.9585 41.9583C54.5002 41.7917 49.0002 39.625 44.9169 36.4167L38.0835 31.125C37.1252 30.375 36.0419 29.875 34.9169 29.5417C33.5786 29.1469 32.1681 29.0614 30.7919 29.2917H30.7085C28.2549 29.7273 26.0727 31.1144 24.6368 33.1512C23.201 35.1879 22.6277 37.7094 23.0419 40.1667L28.6669 64.8334C29.2165 67.6916 30.7437 70.2694 32.9866 72.1245C35.2294 73.9796 38.0479 74.9963 40.9585 75H69.5002L82.3752 85.0834C84.1252 86.4584 86.6252 86.2917 88.1669 84.75C90.0419 82.875 89.8335 79.8334 87.7502 78.2084L69.8752 64.25C68.4078 63.1152 66.6052 62.4997 64.7502 62.5Z" fill="black"/>
</g>
<defs>
<clipPath id="clip0_291_131">
<rect width="100" height="100" fill="white"/>
</clipPath>
</defs>
</svg>
