<svg width="100" height="100" viewBox="0 0 100 100" fill="none" xmlns="http://www.w3.org/2000/svg">
<g clip-path="url(#clip0_291_443)">
<rect x="8" y="43" width="84" height="55" fill="black"/>
<path d="M91.6667 41.6667H87.5V35.4167C87.5739 34.5959 87.4853 33.7686 87.2395 32.9821C86.9937 32.1955 86.5953 31.4651 86.0672 30.8325C85.539 30.1999 84.8915 29.6775 84.1615 29.2952C83.4314 28.9128 82.6333 28.678 81.8125 28.6042C80.9917 28.5303 80.1645 28.6188 79.3779 28.8647C78.5914 29.1105 77.8609 29.5089 77.2283 30.037C75.9507 31.1036 75.1492 32.6341 75 34.2917C53.7917 24.5 56.25 25.8333 56.25 25C56.2346 24.5662 56.084 24.148 55.8193 23.8039C55.5546 23.4598 55.1891 23.207 54.7737 23.0807C54.3583 22.9545 53.9139 22.9612 53.5025 23.0999C53.0912 23.2385 52.7334 23.5023 52.4792 23.8542C49.8958 22.6458 50.125 22.6458 48.3125 23.4792C48.3125 23.4792 48.4375 23.25 48.5208 23.1667C52.9375 18.75 52.0833 20.8333 52.0833 12.5H56.25C56.8025 12.5 57.3324 12.2805 57.7231 11.8898C58.1138 11.4991 58.3333 10.9692 58.3333 10.4167V2.08333C58.3333 1.5308 58.1138 1.00089 57.7231 0.610194C57.3324 0.219493 56.8025 0 56.25 0L43.75 0C43.1975 0 42.6676 0.219493 42.2769 0.610194C41.8862 1.00089 41.6667 1.5308 41.6667 2.08333V10.4167C41.6667 10.9692 41.8862 11.4991 42.2769 11.8898C42.6676 12.2805 43.1975 12.5 43.75 12.5H47.9167V17.8958C45.3333 20.4792 43.75 21.5 43.75 25C43.75 25.8542 46.0833 24.5208 25 34.2917C24.8508 32.6341 24.0493 31.1036 22.7717 30.037C21.4941 28.9704 19.8451 28.455 18.1875 28.6042C16.5299 28.7534 14.9994 29.5549 13.9328 30.8325C12.8662 32.1101 12.3508 33.7591 12.5 35.4167V41.6667H8.33333C7.7808 41.6667 7.25089 41.8862 6.86019 42.2769C6.46949 42.6676 6.25 43.1975 6.25 43.75V97.9167C6.25 98.4692 6.46949 98.9991 6.86019 99.3898C7.25089 99.7805 7.7808 100 8.33333 100H91.6667C92.2192 100 92.7491 99.7805 93.1398 99.3898C93.5305 98.9991 93.75 98.4692 93.75 97.9167V43.75C93.75 43.1975 93.5305 42.6676 93.1398 42.2769C92.7491 41.8862 92.2192 41.6667 91.6667 41.6667ZM45.8333 4.16667H54.1667V8.33333H45.8333V4.16667ZM79.1667 35.4167C79.1667 34.8641 79.3862 34.3342 79.7769 33.9435C80.1676 33.5528 80.6975 33.3333 81.25 33.3333C81.8025 33.3333 82.3324 33.5528 82.7231 33.9435C83.1138 34.3342 83.3333 34.8641 83.3333 35.4167V41.6667H79.1667V35.4167ZM54.4583 29.3542L75 38.8333V41.6667H25V38.8333L45.5417 29.3542C46.1234 29.9463 46.8172 30.4166 47.5827 30.7376C48.3482 31.0587 49.1699 31.224 50 31.224C50.8301 31.224 51.6518 31.0587 52.4173 30.7376C53.1828 30.4166 53.8766 29.9463 54.4583 29.3542ZM16.6667 35.4167C16.6667 34.8641 16.8862 34.3342 17.2769 33.9435C17.6676 33.5528 18.1975 33.3333 18.75 33.3333C19.3025 33.3333 19.8324 33.5528 20.2231 33.9435C20.6138 34.3342 20.8333 34.8641 20.8333 35.4167V41.6667H16.6667V35.4167ZM89.5833 95.8333H10.4167V45.8333H89.5833V95.8333Z" fill="black"/>
<path d="M16.6665 54.1663V87.4997C16.6665 88.0522 16.886 88.5821 17.2767 88.9728C17.6674 89.3635 18.1973 89.583 18.7498 89.583C19.3024 89.583 19.8323 89.3635 20.223 88.9728C20.6137 88.5821 20.8332 88.0522 20.8332 87.4997V54.1663C20.8332 53.6138 20.6137 53.0839 20.223 52.6932C19.8323 52.3025 19.3024 52.083 18.7498 52.083C18.1973 52.083 17.6674 52.3025 17.2767 52.6932C16.886 53.0839 16.6665 53.6138 16.6665 54.1663ZM47.9165 54.1663V87.4997C47.9165 88.0522 48.136 88.5821 48.5267 88.9728C48.9174 89.3635 49.4473 89.583 49.9998 89.583C50.5524 89.583 51.0823 89.3635 51.473 88.9728C51.8637 88.5821 52.0832 88.0522 52.0832 87.4997V54.1663C52.0832 53.6138 51.8637 53.0839 51.473 52.6932C51.0823 52.3025 50.5524 52.083 49.9998 52.083C49.4473 52.083 48.9174 52.3025 48.5267 52.6932C48.136 53.0839 47.9165 53.6138 47.9165 54.1663ZM27.0832 54.1663V87.4997C27.0832 88.0522 27.3027 88.5821 27.6934 88.9728C28.0841 89.3635 28.614 89.583 29.1665 89.583C29.719 89.583 30.2489 89.3635 30.6396 88.9728C31.0303 88.5821 31.2498 88.0522 31.2498 87.4997V54.1663C31.2498 53.6138 31.0303 53.0839 30.6396 52.6932C30.2489 52.3025 29.719 52.083 29.1665 52.083C28.614 52.083 28.0841 52.3025 27.6934 52.6932C27.3027 53.0839 27.0832 53.6138 27.0832 54.1663ZM37.4998 54.1663V87.4997C37.4998 88.0522 37.7193 88.5821 38.11 88.9728C38.5007 89.3635 39.0306 89.583 39.5832 89.583C40.1357 89.583 40.6656 89.3635 41.0563 88.9728C41.447 88.5821 41.6665 88.0522 41.6665 87.4997V54.1663C41.6665 53.6138 41.447 53.0839 41.0563 52.6932C40.6656 52.3025 40.1357 52.083 39.5832 52.083C39.0306 52.083 38.5007 52.3025 38.11 52.6932C37.7193 53.0839 37.4998 53.6138 37.4998 54.1663ZM58.3332 54.1663V87.4997C58.3332 88.0522 58.5527 88.5821 58.9434 88.9728C59.3341 89.3635 59.864 89.583 60.4165 89.583C60.969 89.583 61.4989 89.3635 61.8896 88.9728C62.2803 88.5821 62.4998 88.0522 62.4998 87.4997V54.1663C62.4998 53.6138 62.2803 53.0839 61.8896 52.6932C61.4989 52.3025 60.969 52.083 60.4165 52.083C59.864 52.083 59.3341 52.3025 58.9434 52.6932C58.5527 53.0839 58.3332 53.6138 58.3332 54.1663ZM68.7498 54.1663V87.4997C68.7498 88.0522 68.9693 88.5821 69.36 88.9728C69.7507 89.3635 70.2806 89.583 70.8332 89.583C71.3857 89.583 71.9156 89.3635 72.3063 88.9728C72.697 88.5821 72.9165 88.0522 72.9165 87.4997V54.1663C72.9165 53.6138 72.697 53.0839 72.3063 52.6932C71.9156 52.3025 71.3857 52.083 70.8332 52.083C70.2806 52.083 69.7507 52.3025 69.36 52.6932C68.9693 53.0839 68.7498 53.6138 68.7498 54.1663ZM79.1665 54.1663V87.4997C79.1665 88.0522 79.386 88.5821 79.7767 88.9728C80.1674 89.3635 80.6973 89.583 81.2498 89.583C81.8024 89.583 82.3323 89.3635 82.723 88.9728C83.1137 88.5821 83.3332 88.0522 83.3332 87.4997V54.1663C83.3332 53.6138 83.1137 53.0839 82.723 52.6932C82.3323 52.3025 81.8024 52.083 81.2498 52.083C80.6973 52.083 80.1674 52.3025 79.7767 52.6932C79.386 53.0839 79.1665 53.6138 79.1665 54.1663Z" fill="#FDF51B"/>
</g>
<defs>
<clipPath id="clip0_291_443">
<rect width="100" height="100" fill="white"/>
</clipPath>
</defs>
</svg>
