<svg width="169" height="47" viewBox="0 0 169 47" fill="none" xmlns="http://www.w3.org/2000/svg">
<path fill-rule="evenodd" clip-rule="evenodd" d="M0 46.1234V46.2963C0.507374 46.3421 1.18962 46.3046 1.71869 46.3046L13.5235 46.3205C35.978 46.3205 58.3845 46.3951 80.8243 46.3941C89.806 46.3937 98.8008 46.3581 107.781 46.4163C116.754 46.4744 125.699 46.4211 134.692 46.4541C137.452 46.4642 141.692 46.6162 144.281 45.9212C144.497 45.8632 144.782 45.8269 145.009 45.7738C146.132 45.5112 147.585 45.0674 148.644 44.5367C148.681 44.5181 148.737 44.498 148.771 44.4838C149.735 44.0789 150.598 43.5723 151.486 43.0401L153.16 41.8715C154.39 40.9323 155.468 39.8529 156.432 38.6831L156.713 38.3314C157.686 37.186 158.422 35.9376 159.11 34.6293C159.413 34.0542 159.646 33.5263 159.868 32.907L162.446 23.7007C162.508 23.5403 162.587 23.2052 162.631 23.0343L163.907 18.4438C163.96 18.2286 164.038 18.0039 164.102 17.7727L164.644 15.8362C164.953 14.5305 165.697 12.069 166.101 10.5622C166.341 9.66732 166.618 8.80588 166.851 7.93004C166.976 7.45949 167.071 7.08416 167.216 6.62439C167.35 6.20442 167.444 5.7291 167.577 5.31172C167.715 4.8766 169.012 0.253381 169 0.0439083C168.606 -0.0205239 167.746 0.0279378 167.302 0.0279378C132.008 0.0279378 96.7148 0.0279378 61.421 0.0279378C52.4604 0.0279378 43.4629 -0.050076 34.5079 0.0546264C33.6737 0.0643868 32.2193 0.19564 31.3753 0.296657C30.8715 0.356994 30.3941 0.423744 29.8963 0.478484L26.9906 0.963845C26.5342 1.08643 26.0817 1.17202 25.6413 1.28518C25.1931 1.40033 24.7223 1.46934 24.2955 1.62373C23.9306 1.75559 23.3919 1.84849 23.0231 2.01605L21.7715 2.48367C21.4372 2.60257 20.9393 2.81149 20.5956 2.97858L19.3484 3.59294C18.6729 3.94336 18.0228 4.38319 17.386 4.7891C17.0198 5.02246 16.7338 5.26511 16.4254 5.49697L15.9661 5.89496C15.4233 6.35404 14.0475 7.83427 13.7873 8.36413C13.4517 9.04763 13.0941 9.40727 12.8287 10.2936L11.9528 12.8074C11.881 12.9993 11.7988 13.2159 11.7259 13.4311L10.1895 17.7705C9.6167 19.4053 8.97142 21.0426 8.42414 22.6871L7.54374 25.1479C7.37448 25.6034 7.26915 25.9548 7.12364 26.4075L6.87902 27.0027C6.81831 27.2179 6.72543 27.4443 6.65083 27.645L4.01553 35.0308C3.8629 35.4545 3.7126 35.8221 3.57674 36.2651C3.32144 37.0979 2.96512 37.9356 2.68984 38.7596C2.56213 39.142 2.40279 39.6148 2.24838 39.994L1.80562 41.2182C1.66031 41.6165 1.51897 42.0167 1.36648 42.4444L0.158515 45.8393C0.155435 45.8479 0.106089 45.9883 0.0966435 46.0055C0.0425044 46.104 0.0984223 46.0593 0 46.1234Z" fill="#FDF51B"/>
<path fill-rule="evenodd" clip-rule="evenodd" d="M4.31332 43.9084C4.30513 43.7106 10.4419 27.2789 11.0594 25.6633C12.6315 21.5501 14.187 17.2701 15.7336 13.1051C15.8786 12.7146 15.9873 12.3462 16.1346 11.9736C17.7924 7.78013 23.0146 5.53553 27.453 4.50662C31.0462 3.67352 34.8054 3.26747 38.7375 3.26747H151.545C152.506 3.26747 163.375 3.2141 164.017 3.27665C163.986 3.54699 163.774 4.15361 163.684 4.46269L159.804 17.8122C159.339 19.4339 158.877 21.027 158.394 22.6582C158.067 23.7643 155.888 31.4854 155.543 32.3155C154.308 35.293 152.184 37.8578 150.218 39.5042C146.421 42.6847 141.2 44.0442 135.932 44.0442L104.617 44.0171C87.9053 44.0171 71.1657 43.9575 54.4403 43.9656C37.7293 43.9735 21.0257 43.9657 4.31332 43.9084ZM35.6692 1.74821C33.3114 1.9394 32.1889 1.93308 29.7284 2.31682C25.6054 2.96002 21.1786 4.24438 17.9002 6.76597C16.6962 7.69201 15.5649 8.855 14.7695 10.1633C14.3377 10.8737 14.1052 11.6129 13.8085 12.4443C13.2381 14.0421 12.6226 15.5976 12.0379 17.1959C9.16437 25.0505 6.11375 33.0506 3.21294 40.9044C2.92437 41.6856 2.63567 42.4561 2.33584 43.2647C2.18596 43.6688 2.05116 44.0456 1.89821 44.445C1.75475 44.8199 1.42658 45.4739 2.09357 45.4709C10.7983 45.4318 19.5172 45.4942 28.2239 45.4942C63.0137 45.4942 97.7609 45.6118 132.548 45.6114C137.068 45.6114 140.152 45.861 144.531 44.5352C148.002 43.4843 150.719 41.6683 152.748 39.7315C154.332 38.2195 155.881 36.2746 156.922 34.1817C157.345 33.3318 157.564 32.7837 157.84 31.8127C158.798 28.4459 159.791 25.0635 160.781 21.706C161.764 18.3732 162.7 15.0009 163.709 11.6307L166.263 2.84743C166.364 2.4987 166.71 1.76494 166.168 1.71136C165.681 1.66309 153.591 1.71197 153.124 1.71197C115.056 1.71197 76.9868 1.71197 38.918 1.71197C37.871 1.71197 36.6892 1.66553 35.6692 1.74821ZM87.15 23.4399L80.6851 23.4377L80.2172 26.0858L83.2918 26.0889C83.2997 26.4284 82.8055 29.1929 82.6997 29.3782C82.5426 29.5169 79.8873 29.7374 79.3464 29.7211C75.3334 29.6004 75.4514 25.4961 76.3913 22.5983C77.004 20.7091 78.0402 19.1625 79.7925 18.5695C80.9727 18.1701 83.3925 18.0043 84.0846 19.2977C84.4082 19.9024 84.2705 20.2302 84.2651 20.9073L87.874 20.9114C88.4146 18.3256 87.18 16.9201 85.2117 16.2878C83.1454 15.6241 80.651 15.6543 78.599 16.3017C74.6093 17.5601 72.5744 21.2415 72.2614 25.1817C71.8282 30.6338 75.3005 32.312 80.501 31.9932C81.0804 31.9576 81.6979 31.8801 82.2406 31.8596C83.3241 31.8186 84.5484 31.7246 85.593 31.4033C85.7923 31.342 85.7513 31.3768 85.7933 31.1516C85.82 31.0085 85.8377 30.8723 85.8642 30.7232L86.8748 25.0823C86.9522 24.6466 87.1466 23.8406 87.15 23.4399ZM139.962 22.9161C139.942 22.5781 140.234 21.2439 140.31 20.8281C140.433 20.1583 140.528 19.4295 140.685 18.774C141.163 18.7349 143.934 18.7419 144.352 18.8151C145.542 19.0234 145.831 19.8671 145.487 21.0822C145.217 22.0349 144.594 22.6489 143.562 22.8462C142.764 22.9985 140.86 22.9458 139.962 22.9161ZM134.877 31.843L138.324 31.8458L139.463 25.5648L142.972 25.5603C144.055 25.5604 144.276 26.4067 144.18 27.4625C143.961 29.8634 143.93 29.6901 144.006 31.8382L147.714 31.8453C147.071 29.1619 147.877 27.9011 147.389 25.9969C146.904 24.1042 145.551 24.2487 145.34 24.0603C145.434 24.0002 146.302 23.787 146.895 23.4736C148.388 22.6839 149.363 21.2548 149.36 19.3409C149.356 16.7944 146.858 16.1141 144.325 16.1141L137.702 16.1181L134.877 31.843ZM131.063 22.667C130.779 25.5625 129.89 28.3696 127.782 29.3349C126.55 29.8992 124.805 29.8861 123.81 29.1237C122.853 28.3905 122.564 26.9615 122.711 25.3215C122.978 22.3483 123.956 19.7033 126.023 18.6827C127.173 18.1149 129.029 18.1172 129.969 18.8537C130.934 19.6094 131.219 21.0756 131.063 22.667ZM127.993 15.8176C125.276 16.0376 123.799 16.6782 122.272 18.0488C119.564 20.4798 117.884 26.7156 120.074 29.7886C121.117 31.2525 123.277 32.1504 125.825 32.023C130.759 31.7759 133.316 28.9207 134.375 24.6673C134.924 22.463 134.808 19.6951 133.659 18.0551C133.128 17.2971 132.448 16.7443 131.417 16.3329C130.512 15.9714 129.091 15.7285 127.993 15.8176ZM98.8413 19.2152L99.7986 25.8832L95.2856 25.8882C95.3278 25.679 98.1041 20.4763 98.562 19.6014C98.7121 19.3146 98.6807 19.2552 98.8413 19.2152ZM88.8539 31.8458L92.1277 31.8464C92.3594 31.3262 92.7313 30.7019 93.0237 30.1773L93.9327 28.5305L100.178 28.5298L100.807 31.8457L104.258 31.846C104.185 31.0834 103.595 28.0691 103.416 27.0553L101.715 17.4645C101.421 15.8238 101.805 16.1141 100.24 16.1141C99.351 16.1141 98.282 16.0608 97.4148 16.1225C95.9565 18.7439 94.5753 21.3187 93.1347 23.949L89.9268 29.8325C89.7376 30.183 88.9166 31.6134 88.8539 31.8458ZM28.5603 19.5861C28.7176 19.2874 28.6515 19.2892 28.8105 19.2027C28.8829 19.3307 29.7769 25.431 29.7784 25.8876L25.2656 25.8848L28.5603 19.5861ZM18.8584 31.844L22.0421 31.8464C22.182 31.8163 22.9171 30.3575 22.9918 30.2207C23.2706 29.7094 23.5926 29.0209 23.9147 28.5364L30.1789 28.53L30.7974 31.8424L34.2467 31.8468L31.4675 16.1207L27.4143 16.1168L25.2822 20.0067C24.5749 21.3444 23.8614 22.6095 23.1344 23.9347L19.9247 29.8158C19.7341 30.1564 18.9201 31.5524 18.8584 31.844ZM106.543 18.76L111.258 18.7668C111.267 19.1034 110.2 24.8157 110.112 25.314C110.011 25.8793 108.981 31.4443 108.956 31.8416L112.333 31.8467C112.46 31.7691 112.364 31.8987 112.43 31.7127L112.983 28.6224C113.175 27.5229 113.374 26.4218 113.57 25.3347C113.96 23.1723 114.307 20.9534 114.746 18.7789L119.463 18.7659C119.53 18.6239 119.936 16.3498 119.944 16.1217L107.022 16.1142L106.543 18.76ZM37.2397 31.8384L47.5079 31.8466L47.9789 29.2078L41.1027 29.2002L43.4258 16.1244L40.0587 16.1143L37.2397 31.8384ZM50.7696 31.842L61.0384 31.8465L61.5092 29.2131L54.635 29.2002L56.9559 16.1264L53.5916 16.114L50.7696 31.842ZM64.0955 31.8437L67.4808 31.8464C67.6032 31.8144 67.5773 31.7579 67.6299 31.4432C68.2567 27.6986 69.0007 23.8332 69.6626 20.0765C69.7816 19.4003 69.8973 18.7619 70.018 18.093C70.1019 17.6278 70.3541 16.5361 70.3508 16.1239L66.9148 16.1147L64.0955 31.8437Z" fill="#0A0C0B"/>
</svg>
