<svg width="32" height="31" viewBox="0 0 32 31" fill="none" xmlns="http://www.w3.org/2000/svg">
<g clip-path="url(#clip0_95_14)">
<path d="M31.8916 0H0.909717C0.904701 0 0.900635 0.00406616 0.900635 0.00908203V30.9909C0.900635 30.9959 0.904701 31 0.909717 31H31.8916C31.8966 31 31.9006 30.9959 31.9006 30.9909V0.00908203C31.9006 0.00406616 31.8966 0 31.8916 0Z" fill="#EE8208"/>
<path d="M16.4006 8.29492C16.9867 8.29492 17.5488 8.52776 17.9633 8.9422C18.3777 9.35665 18.6106 9.91876 18.6106 10.5049C18.6106 11.091 18.3777 11.6531 17.9633 12.0676C17.5488 12.482 16.9867 12.7148 16.4006 12.7148C15.8145 12.7148 15.2524 12.482 14.8379 12.0676C14.4235 11.6531 14.1906 11.091 14.1906 10.5049C14.1906 9.91876 14.4235 9.35665 14.8379 8.9422C15.2524 8.52776 15.8145 8.29492 16.4006 8.29492ZM16.4006 15.833C19.3432 15.833 21.7287 13.4414 21.7287 10.5049C21.7287 7.56836 19.3371 5.17676 16.4006 5.17676C13.4641 5.17676 11.0725 7.56836 11.0725 10.5049C11.0725 13.4414 13.4641 15.833 16.4006 15.833ZM18.5561 20.1863C19.6495 19.939 20.6934 19.5091 21.644 18.9148C21.8173 18.8051 21.9673 18.6623 22.0855 18.4946C22.2036 18.3269 22.2876 18.1376 22.3326 17.9374C22.3776 17.7373 22.3827 17.5302 22.3476 17.3281C22.3126 17.126 22.2381 16.9327 22.1283 16.7594C22.0186 16.586 21.8758 16.436 21.7081 16.3179C21.5404 16.1997 21.3511 16.1157 21.1509 16.0708C20.9508 16.0258 20.7437 16.0207 20.5416 16.0557C20.3394 16.0908 20.1462 16.1653 19.9729 16.275C18.8962 16.9478 17.6521 17.3046 16.3824 17.3046C15.1128 17.3046 13.8687 16.9478 12.792 16.275C12.6187 16.1653 12.4254 16.0908 12.2233 16.0557C12.0212 16.0207 11.8141 16.0258 11.614 16.0708C11.4138 16.1157 11.2245 16.1997 11.0568 16.3179C10.8891 16.436 10.7463 16.586 10.6365 16.7594C10.5268 16.9327 10.4523 17.126 10.4172 17.3281C10.3822 17.5302 10.3873 17.7373 10.4323 17.9374C10.4773 18.1376 10.5612 18.3269 10.6794 18.4946C10.7975 18.6623 10.9476 18.8051 11.1209 18.9148C12.0836 19.5203 13.119 19.9441 14.2088 20.1863L11.242 23.1713C10.9489 23.4643 10.7843 23.8618 10.7843 24.2763C10.7843 24.6907 10.9489 25.0882 11.242 25.3813C11.5351 25.6743 11.9325 25.8389 12.347 25.8389C12.7614 25.8389 13.1589 25.6743 13.452 25.3813L16.3824 22.4447L19.3129 25.3752C19.458 25.5204 19.6302 25.6355 19.8198 25.7141C20.0094 25.7927 20.2127 25.8331 20.4179 25.8331C20.6231 25.8331 20.8263 25.7927 21.0159 25.7141C21.2055 25.6355 21.3778 25.5204 21.5229 25.3752C21.668 25.2301 21.7832 25.0579 21.8618 24.8683C21.9404 24.6787 21.9808 24.4754 21.9808 24.2702C21.9808 24.065 21.9404 23.8618 21.8618 23.6722C21.7832 23.4826 21.668 23.3103 21.5229 23.1652L18.5379 20.1803" fill="white"/>
</g>
<defs>
<clipPath id="clip0_95_14">
<rect x="0.900635" width="31" height="31" rx="4" fill="white"/>
</clipPath>
</defs>
</svg>
