<svg width="97" height="40" viewBox="0 0 97 40" fill="none" xmlns="http://www.w3.org/2000/svg">
<g clip-path="url(#clip0_219_77)">
<path d="M16.0997 32.4216C15.3304 32.1577 14.8046 31.7996 14.1626 31.104C12.8141 29.6429 12.74 29.2067 12.74 22.7179C12.74 16.4656 12.836 15.8767 14.0923 14.4086C15.8537 12.351 19.9267 12.4118 21.666 14.5217C22.8212 15.9232 22.9151 16.5471 22.9151 22.8138C22.9151 27.7735 22.8721 28.6002 22.5695 29.468C22.1057 30.7969 20.7389 32.0826 19.3522 32.4944C18.0445 32.8828 17.4004 32.8686 16.0997 32.4214V32.4216ZM18.4908 29.414C19.276 29.1126 19.3634 28.453 19.3634 22.8325C19.3634 19.2458 19.2912 17.298 19.1464 16.9804C18.6607 15.9142 16.9943 15.9142 16.5086 16.9804C16.3638 17.298 16.2917 19.2458 16.2917 22.8325C16.2917 29.1036 16.3717 29.4674 17.7638 29.5183C17.9928 29.5265 18.3199 29.4795 18.4908 29.414ZM27.02 32.3164C26.7436 32.1663 26.3546 31.7159 26.1561 31.3162C25.8211 30.6419 25.7908 29.9523 25.7378 21.8059L25.6808 13.0227H29.3465V21.0624C29.3465 27.9436 29.3876 29.1366 29.632 29.3392C30.0574 29.6922 30.7485 29.4338 31.5301 28.6294L32.2262 27.9127V13.0229H35.8739V32.4132H32.2262V30.4607L31.3143 31.2703C30.8128 31.7155 30.1244 32.198 29.7846 32.3425C28.9925 32.6791 27.6645 32.6664 27.02 32.3164ZM4.77019 27.0853L4.76731 21.7578L2.39498 14.1744L0.022644 6.59111L1.95015 6.53601C3.07843 6.50376 3.92623 6.55982 3.99496 6.67117C4.05966 6.7758 4.67151 8.98168 5.35458 11.5731C6.03804 14.1644 6.64048 16.2851 6.69405 16.2855C6.7478 16.2859 7.25118 14.5369 7.81292 12.3986C8.37486 10.2605 8.96328 8.05747 9.1209 7.50303L9.40753 6.49512H11.4303C13.0782 6.49512 13.4342 6.54465 13.3507 6.76197C13.2944 6.90865 12.2051 10.3607 10.9303 14.433L8.61253 21.8372V32.4128H4.77287L4.77019 27.0853Z" fill="#010101"/>
<path d="M54.7132 39.8907C45.3339 39.5775 42.7941 38.91 41.0674 36.3029C40.3698 35.2497 39.5867 32.8925 39.3373 31.0948C38.4618 24.7851 38.6769 11.6277 39.7291 7.0929C40.6821 2.98619 42.9231 0.974406 47.0112 0.555308C51.0271 0.143505 61.4959 -0.0807311 71.6787 0.0267793C82.672 0.142737 87.8477 0.377916 89.7203 0.846546C93.3833 1.76288 95.1603 4.4612 95.7799 10.0464C95.897 11.1023 96.0409 14.7887 96.0997 18.2383C96.3366 32.1637 95.289 36.5937 91.2963 38.5499C89.7886 39.2886 88.8024 39.4583 84.5414 39.7127C79.9134 39.9888 61.0273 40.1015 54.7132 39.8907ZM59.3273 32.3004C59.651 32.1328 60.2945 31.6469 60.7576 31.2196L61.5996 30.444V32.4125H65.2473V13.2143H61.5996V27.8556L60.761 28.694C59.861 29.5942 59.497 29.7065 59.0217 29.2312C58.7571 28.9666 58.7199 27.9591 58.7199 21.0719V13.2141H55.0722V21.5306C55.0722 30.7049 55.1476 31.4307 56.1796 32.201C56.8329 32.6884 58.4764 32.7403 59.3273 32.3004ZM76.8841 32.2384C77.2191 32.0341 77.6834 31.4647 77.94 30.9433C78.3904 30.0287 78.3995 29.9028 78.4626 23.681C78.5317 16.8594 78.4219 15.6277 77.6206 14.245C77.1754 13.4767 76.1137 12.8301 75.2968 12.8301C74.5101 12.8301 73.3828 13.3594 72.5232 14.1321L71.5829 14.9774V6.68666H68.1272V32.4124H71.5829V30.64L72.371 31.352C72.8045 31.7435 73.4309 32.1822 73.7629 32.3265C74.6543 32.7147 76.1736 32.6717 76.8841 32.2382V32.2384ZM72.3027 29.1068L71.5827 28.6894V16.9151L72.4347 16.4632C73.1261 16.0965 73.3885 16.0472 73.8266 16.2009C74.7733 16.5335 74.8752 17.2668 74.8096 23.2621L74.7504 28.6065L74.2117 29.0695C73.5523 29.6367 73.2282 29.643 72.3027 29.1068ZM88.4772 32.2044C90.3325 31.3634 91.168 29.941 91.3141 27.3745L91.4101 25.6931H87.7091V26.8328C87.7091 28.2285 87.4927 28.8382 86.8477 29.261C86.1206 29.7371 85.217 29.4345 84.7819 28.5689C84.5191 28.0465 84.446 27.4099 84.446 25.645L84.4454 23.3892H91.3568V20.5703C91.3568 17.0224 91.0793 15.8917 89.8831 14.5612C88.826 13.3857 87.6935 12.9177 85.9812 12.9491C84.5619 12.9751 83.6135 13.3289 82.6173 14.2036C80.9893 15.6333 80.7424 16.9071 80.8398 23.3894C80.9031 27.6013 80.9728 28.6274 81.2462 29.3518C81.7131 30.5885 82.5565 31.5302 83.7147 32.1075C85.0202 32.7575 87.1608 32.8013 88.4772 32.2044ZM84.4456 19.0632C84.4456 16.6753 85.0582 15.8606 86.5998 16.1992C87.3737 16.3693 87.7095 17.2355 87.7095 19.0634V20.5094H84.4458V19.0634L84.4456 19.0632ZM51.4245 21.3735V10.3345H55.6482V6.68685H43.5532V10.3345H47.5849V32.4125H51.4245V21.3735Z" fill="#D02726"/>
</g>
<defs>
<clipPath id="clip0_219_77">
<rect width="96.1538" height="40" fill="white"/>
</clipPath>
</defs>
</svg>
