<svg width="31" height="31" viewBox="0 0 31 31" fill="none" xmlns="http://www.w3.org/2000/svg">
<g clip-path="url(#clip0_54_65)">
<path d="M4.76152 -6.10352e-05H26.1391C28.7687 -6.10352e-05 30.9006 2.13176 30.9006 4.76149V26.139C30.9006 28.7686 28.7687 30.9005 26.1391 30.9005H4.76152C2.13182 30.9005 0 28.7686 0 26.139V4.76149C0 2.13176 2.13182 -6.10352e-05 4.76152 -6.10352e-05Z" fill="#4C75A3"/>
<path d="M15.191 21.6314H16.455C16.455 21.6314 16.8368 21.5893 17.0319 21.3793C17.2113 21.1863 17.2056 20.8241 17.2056 20.8241C17.2056 20.8241 17.1809 19.128 17.9679 18.8783C18.7441 18.6321 19.7405 20.5174 20.7966 21.2424C21.5953 21.7909 22.2022 21.6709 22.2022 21.6709L25.0264 21.6314C25.0264 21.6314 26.5036 21.5402 25.8031 20.3787C25.7458 20.2839 25.395 19.5195 23.7032 17.9492C21.9322 16.3056 22.1697 16.5715 24.3028 13.7284C25.6018 11.997 26.1211 10.94 25.9588 10.4873C25.8042 10.056 24.8487 10.17 24.8487 10.17L21.6689 10.1896C21.6689 10.1896 21.4331 10.1575 21.2583 10.262C21.0874 10.3643 20.9778 10.6032 20.9778 10.6032C20.9778 10.6032 20.4743 11.9429 19.8033 13.0825C18.3875 15.4867 17.8212 15.614 17.5897 15.4645C17.0513 15.1165 17.1858 14.0668 17.1858 13.3209C17.1858 10.9908 17.5392 10.0193 16.4976 9.7678C16.152 9.6844 15.8974 9.62923 15.0134 9.62022C13.8788 9.60869 12.9187 9.62369 12.3749 9.89008C12.0131 10.0672 11.734 10.4619 11.9041 10.4847C12.1143 10.5126 12.5901 10.6131 12.8425 10.9564C13.1684 11.3998 13.157 12.3953 13.157 12.3953C13.157 12.3953 13.3443 15.1381 12.7197 15.4787C12.2912 15.7124 11.7032 15.2354 10.4408 13.0541C9.79413 11.9368 9.30571 10.7016 9.30571 10.7016C9.30571 10.7016 9.21165 10.4709 9.04366 10.3473C8.83991 10.1976 8.55521 10.1502 8.55521 10.1502L5.53352 10.1699C5.53352 10.1699 5.07999 10.1826 4.91335 10.3798C4.76509 10.5554 4.9015 10.9182 4.9015 10.9182C4.9015 10.9182 7.26701 16.4527 9.94574 19.2418C12.4022 21.7992 15.191 21.6314 15.191 21.6314Z" fill="white"/>
</g>
<defs>
<clipPath id="clip0_54_65">
<rect width="30.9006" height="30.9006" fill="white"/>
</clipPath>
</defs>
</svg>
