<svg width="76" height="31" viewBox="0 0 76 31" fill="none" xmlns="http://www.w3.org/2000/svg">
<g clip-path="url(#clip0_54_75)">
<path d="M13.3378 25.0459C12.7436 24.842 12.3373 24.5654 11.8414 24.0281C10.7997 22.8993 10.7424 22.5624 10.7424 17.5496C10.7424 12.7196 10.8166 12.2648 11.7871 11.1307C13.1478 9.54107 16.2942 9.58809 17.6379 11.218C18.5303 12.3007 18.6028 12.7827 18.6028 17.6238C18.6028 21.4552 18.5696 22.0938 18.3359 22.7642C17.9775 23.7908 16.9217 24.784 15.8505 25.1022C14.8402 25.4022 14.3426 25.3912 13.3378 25.0458V25.0459ZM15.185 22.7225C15.7916 22.4897 15.8591 21.9801 15.8591 17.6382C15.8591 14.8675 15.8033 13.3627 15.6915 13.1174C15.3163 12.2937 14.0289 12.2937 13.6537 13.1174C13.5419 13.3627 13.4861 14.8675 13.4861 17.6382C13.4861 22.4827 13.548 22.7638 14.6234 22.8031C14.8003 22.8094 15.053 22.7731 15.185 22.7225ZM21.774 24.9647C21.5604 24.8487 21.2599 24.5008 21.1066 24.192C20.8478 23.6711 20.8243 23.1384 20.7834 16.8452L20.7394 10.06H23.5712V16.2708C23.5712 21.5866 23.6029 22.5082 23.7917 22.6647C24.1204 22.9374 24.6543 22.7378 25.2581 22.1164L25.7958 21.5627V10.0602H28.6137V25.0394H25.7958V23.5311L25.0914 24.1565C24.704 24.5005 24.1721 24.8732 23.9096 24.9848C23.2977 25.2448 22.2718 25.235 21.774 24.9647ZM4.58564 20.9235L4.58341 16.8079L2.75075 10.9497L0.918091 5.09149L2.40712 5.04892C3.27873 5.02401 3.93367 5.06731 3.98676 5.15333C4.03674 5.23416 4.50941 6.93824 5.03709 8.94012C5.56507 10.942 6.03047 12.5802 6.07185 12.5805C6.11337 12.5808 6.50224 11.2297 6.93619 9.57785C7.3703 7.92613 7.82487 6.22428 7.94663 5.79596L8.16805 5.01733H9.73064C11.0037 5.01733 11.2787 5.0556 11.2142 5.22348C11.1707 5.33679 10.3292 8.00355 9.34445 11.1495L7.5539 16.8693V25.0391H4.58771L4.58564 20.9235Z" fill="#010101"/>
<path d="M43.1673 30.8162C35.9217 30.5743 33.9597 30.0586 32.6258 28.0446C32.0868 27.231 31.4819 25.41 31.2892 24.0212C30.6129 19.1469 30.7791 8.98265 31.5919 5.47943C32.3281 2.30694 34.0594 0.752804 37.2175 0.429045C40.3198 0.110921 48.4071 -0.0623049 56.2735 0.0207484C64.766 0.110327 68.7642 0.292007 70.2109 0.65403C73.0406 1.36191 74.4134 3.4464 74.892 7.76102C74.9824 8.57673 75.0937 11.4246 75.139 14.0894C75.322 24.847 74.5127 28.2693 71.4283 29.7804C70.2637 30.3511 69.5018 30.4822 66.2101 30.6787C62.6349 30.892 48.0451 30.979 43.1673 30.8162ZM46.7318 24.9526C46.9819 24.8231 47.479 24.4478 47.8367 24.1176L48.4872 23.5185V25.0392H51.3051V10.2083H48.4872V21.519L47.8394 22.1666C47.1441 22.862 46.8629 22.9488 46.4957 22.5816C46.2913 22.3772 46.2626 21.5989 46.2626 16.2784V10.2081H43.4447V16.6328C43.4447 23.72 43.503 24.2808 44.3001 24.8758C44.8048 25.2524 46.0745 25.2924 46.7318 24.9526ZM60.2947 24.9047C60.5535 24.7469 60.9121 24.307 61.1104 23.9042C61.4584 23.1977 61.4653 23.1004 61.5141 18.294C61.5675 13.0242 61.4827 12.0727 60.8636 11.0046C60.5197 10.411 59.6996 9.91151 59.0685 9.91151C58.4607 9.91151 57.5899 10.3204 56.9259 10.9173L56.1995 11.5704V5.16561H53.5299V25.0391H56.1995V23.6699L56.8083 24.22C57.1432 24.5224 57.6271 24.8613 57.8835 24.9728C58.5721 25.2727 59.7458 25.2395 60.2947 24.9046V24.9047ZM56.7555 22.4855L56.1993 22.1631V13.0672L56.8575 12.7181C57.3916 12.4349 57.5943 12.3967 57.9328 12.5155C58.6641 12.7724 58.7428 13.3389 58.6921 17.9704L58.6464 22.099L58.2303 22.4567C57.7208 22.8948 57.4705 22.8997 56.7555 22.4855ZM69.2506 24.8785C70.6838 24.2287 71.3293 23.1299 71.4421 21.1473L71.5163 19.8484H68.6572V20.7288C68.6572 21.807 68.49 22.278 67.9917 22.6046C67.4301 22.9724 66.732 22.7387 66.3959 22.0699C66.1929 21.6664 66.1363 21.1746 66.1363 19.8112L66.1359 18.0685H71.475V15.8909C71.475 13.1501 71.2607 12.2766 70.3366 11.2488C69.52 10.3407 68.6452 9.97914 67.3224 10.0035C66.2259 10.0235 65.4933 10.2968 64.7237 10.9725C63.466 12.077 63.2753 13.061 63.3505 18.0687C63.3994 21.3224 63.4533 22.1152 63.6645 22.6747C64.0252 23.6301 64.6767 24.3576 65.5714 24.8036C66.5799 25.3057 68.2336 25.3396 69.2506 24.8785ZM66.1361 14.7267C66.1361 12.882 66.6093 12.2526 67.8002 12.5142C68.3981 12.6456 68.6575 13.3148 68.6575 14.7268V15.8439H66.1362V14.7268L66.1361 14.7267ZM40.6268 16.5114V7.98364H43.8896V5.16576H34.5461V7.98364H37.6606V25.0392H40.6268V16.5114Z" fill="#D02726"/>
</g>
<defs>
<clipPath id="clip0_54_75">
<rect width="74.2803" height="30.9006" fill="white" transform="translate(0.900635)"/>
</clipPath>
</defs>
</svg>
