<svg width="81" height="80" viewBox="0 0 81 80" fill="none" xmlns="http://www.w3.org/2000/svg">
<path d="M13.2919 15.5C9.54188 12.8333 8.62521 7.66668 11.2502 3.87501C13.8752 0.125013 19.0835 -0.791654 22.8752 1.83335C26.6252 4.50001 27.5419 9.66668 24.9169 13.4583C22.2502 17.2083 17.0835 18.125 13.2919 15.5ZM57.6669 75.3334C57.6669 73.0417 55.7919 71.1667 53.5002 71.1667H28.2085C22.0419 71.1667 16.7919 66.6667 15.8752 60.5833L8.33355 24.4167C8.14487 23.4963 7.64332 22.6696 6.91413 22.0771C6.18493 21.4846 5.27309 21.1629 4.33355 21.1667C1.75021 21.1667 -0.166452 23.5417 0.333548 26.0833L7.62521 61.8334C8.39061 66.7542 10.89 71.2393 14.6722 74.479C18.4544 77.7187 23.2702 79.4995 28.2502 79.5H53.5002C55.7919 79.5 57.6669 77.625 57.6669 75.3334ZM55.7502 54.5H38.2919L34.0002 37.4167C39.3335 40.4167 44.9585 42.75 51.0835 42.8333C53.5002 42.875 55.4585 40.7917 55.4585 38.375C55.4585 35.9167 53.4169 34.0417 50.9585 33.9583C45.5002 33.7917 40.0002 31.625 35.9169 28.4167L29.0835 23.125C28.1252 22.375 27.0419 21.875 25.9169 21.5417C24.5786 21.1469 23.1681 21.0614 21.7919 21.2917H21.7085C19.2549 21.7273 17.0727 23.1144 15.6368 25.1512C14.201 27.1879 13.6277 29.7094 14.0419 32.1667L19.6669 56.8334C20.2165 59.6916 21.7437 62.2694 23.9866 64.1245C26.2294 65.9796 29.0479 66.9963 31.9585 67H60.5002L73.3752 77.0834C75.1252 78.4584 77.6252 78.2917 79.1669 76.75C81.0419 74.875 80.8335 71.8334 78.7502 70.2084L60.8752 56.25C59.4078 55.1152 57.6052 54.4997 55.7502 54.5Z" fill="black"/>
</svg>
